<svg width="854" height="59" viewBox="0 0 854 59" fill="none" xmlns="http://www.w3.org/2000/svg">
<path fill-rule="evenodd" clip-rule="evenodd" d="M431.342 32.4992C443.378 19.9938 453.568 9.75125 474 9.75124L474 0C461.476 1.09488e-06 451.855 3.10159 443.973 7.63778C421.296 20.6888 411.204 49.2487 379.2 49.2487C358.768 49.2487 348.578 39.0061 336.542 26.5007C336.402 26.3552 336.261 26.2092 336.121 26.063C324.551 14.0383 311.044 1.4246e-05 284.4 1.65754e-05C257.756 1.89047e-05 244.249 14.0383 232.68 26.063C232.539 26.2092 232.398 26.3552 232.258 26.5008C220.222 39.0061 210.032 49.2487 189.6 49.2487C169.168 49.2487 158.978 39.0061 146.942 26.5008L146.521 26.063C134.951 14.0383 121.444 3.08214e-05 94.8 3.31507e-05C71.1707 3.52165e-05 56.1758 12.451 42.6583 26.5008C30.6224 39.0061 20.4316 49.2488 4.30546e-06 49.2488L5.15794e-06 59C26.6444 59 40.1511 44.9617 51.7204 32.937L52.1417 32.4993C64.1776 19.9939 74.3684 9.75128 94.8 9.75128C115.232 9.75127 125.422 19.9939 137.458 32.4992L137.879 32.937C149.449 44.9617 162.956 59 189.6 59C216.244 59 229.751 44.9617 241.32 32.937C241.461 32.7908 241.602 32.6448 241.742 32.4992C253.778 19.9939 263.968 9.75126 284.4 9.75126C304.832 9.75126 315.022 19.9938 327.058 32.4992C327.198 32.6448 327.339 32.7907 327.48 32.937C339.049 44.9617 352.556 59 379.2 59C405.844 59 419.351 44.9617 430.921 32.937C431.061 32.7907 431.202 32.6448 431.342 32.4992Z" fill="url(#paint0_linear_199_45)"/>
<path fill-rule="evenodd" clip-rule="evenodd" d="M811.342 32.4992C823.378 19.9938 833.568 9.75125 854 9.75124L854 0C841.476 1.09488e-06 831.855 3.10159 823.973 7.63778C801.296 20.6888 791.204 49.2487 759.2 49.2487C738.768 49.2487 728.578 39.0061 716.542 26.5007C716.402 26.3552 716.261 26.2092 716.121 26.063C704.551 14.0383 691.044 1.4246e-05 664.4 1.65754e-05C637.756 1.89047e-05 624.249 14.0383 612.68 26.063C612.539 26.2092 612.398 26.3552 612.258 26.5008C600.222 39.0061 590.032 49.2487 569.6 49.2487C549.168 49.2487 538.978 39.0061 526.942 26.5008L526.521 26.063C514.951 14.0383 501.444 3.08214e-05 474.8 3.31507e-05C451.171 3.52165e-05 436.176 12.451 422.658 26.5008C410.622 39.0061 400.432 49.2488 380 49.2488L380 59C406.644 59 420.151 44.9617 431.72 32.937L432.142 32.4993C444.178 19.9939 454.368 9.75128 474.8 9.75128C495.232 9.75127 505.422 19.9939 517.458 32.4992L517.879 32.937C529.449 44.9617 542.956 59 569.6 59C596.244 59 609.751 44.9617 621.32 32.937C621.461 32.7908 621.602 32.6448 621.742 32.4992C633.778 19.9939 643.968 9.75126 664.4 9.75126C684.832 9.75126 695.022 19.9938 707.058 32.4992C707.198 32.6448 707.339 32.7907 707.48 32.937C719.049 44.9617 732.556 59 759.2 59C785.844 59 799.351 44.9617 810.921 32.937C811.061 32.7907 811.202 32.6448 811.342 32.4992Z" fill="url(#paint1_linear_199_45)"/>
<defs>
<linearGradient id="paint0_linear_199_45" x1="474" y1="29.5" x2="3.30965e-05" y2="29.5" gradientUnits="userSpaceOnUse">
<stop offset="0.153846" stop-color="#2F56C3"/>
<stop offset="1" stop-color="#89A0E2"/>
</linearGradient>
<linearGradient id="paint1_linear_199_45" x1="854" y1="29.5" x2="380" y2="29.5" gradientUnits="userSpaceOnUse">
<stop offset="0.0576923" stop-color="#F3E0D4"/>
<stop offset="0.653846" stop-color="#2F56C3"/>
</linearGradient>
</defs>
</svg>
